<?xml version="1.0" encoding="UTF-8" standalone="no"?>
<!DOCTYPE svg PUBLIC "-//W3C//DTD SVG 1.1//EN"
 "http://www.w3.org/Graphics/SVG/1.1/DTD/svg11.dtd">
<!-- Generated by graphviz version 12.2.1 (20241206.2353)
 -->
<!-- Pages: 1 -->
<svg width="1044pt" height="586pt"
 viewBox="0.00 0.00 1043.50 585.70" xmlns="http://www.w3.org/2000/svg" xmlns:xlink="http://www.w3.org/1999/xlink">
<g id="graph0" class="graph" transform="scale(1 1) rotate(0) translate(4 581.7)">
<polygon fill="#2e2e2e" stroke="none" points="-4,4 -4,-581.7 1039.5,-581.7 1039.5,4 -4,4"/>
<text text-anchor="middle" x="517.75" y="-560.4" font-family="Arial" font-size="14.00" fill="#ffffff">Correlation ID: 55aecc027a133a3404f881f2e0c5c97d</text>
<g id="clust1" class="cluster">
<title>cluster_paymentsprocessing</title>
<polygon fill="#999999" stroke="#303030" points="8,-152.11 8,-489.73 204,-489.73 204,-152.11 8,-152.11"/>
<text text-anchor="middle" x="106" y="-472.43" font-family="Arial" font-size="14.00" fill="#303030">paymentsprocessing</text>
</g>
<g id="clust2" class="cluster">
<title>cluster_mastercard</title>
<polygon fill="#2980b9" stroke="#ffffff" points="16,-160.11 16,-457.98 196,-457.98 196,-160.11 16,-160.11"/>
<text text-anchor="middle" x="106" y="-440.68" font-family="Arial" font-size="14.00" fill="#ffffff">mastercard</text>
</g>
<!-- f1d55c6b&#45;9957&#45;4c27&#45;aeee&#45;b68f0ef3c8e6 -->
<g id="node1" class="node">
<title>f1d55c6b&#45;9957&#45;4c27&#45;aeee&#45;b68f0ef3c8e6</title>
<path fill="#4e4e4e" stroke="black" d="M175.62,-426.23C175.62,-426.23 36.38,-426.23 36.38,-426.23 30.37,-426.23 24.38,-420.23 24.38,-414.23 24.38,-414.23 24.38,-400.48 24.38,-400.48 24.38,-394.48 30.38,-388.48 36.38,-388.48 36.38,-388.48 175.62,-388.48 175.62,-388.48 181.62,-388.48 187.62,-394.48 187.62,-400.48 187.62,-400.48 187.62,-414.23 187.62,-414.23 187.62,-420.23 181.62,-426.23 175.62,-426.23"/>
<text text-anchor="start" x="34.38" y="-412.63" font-family="Arial" font-size="8.00" fill="#ffffff">com.starlingbank.mastercard.issuer.auth</text>
<text text-anchor="start" x="42.25" y="-396.98" font-family="Arial" font-size="10.00" fill="#ffffff">AuthorisationRequestHandler</text>
</g>
<!-- a8d660d9&#45;d8bd&#45;4087&#45;b9a7&#45;e1e6b87cc006 -->
<g id="node2" class="node">
<title>a8d660d9&#45;d8bd&#45;4087&#45;b9a7&#45;e1e6b87cc006</title>
<path fill="#4e4e4e" stroke="#b00020" d="M175.62,-352.48C175.62,-352.48 36.38,-352.48 36.38,-352.48 30.37,-352.48 24.38,-346.48 24.38,-340.48 24.38,-340.48 24.38,-326.73 24.38,-326.73 24.38,-320.73 30.38,-314.73 36.38,-314.73 36.38,-314.73 175.62,-314.73 175.62,-314.73 181.62,-314.73 187.62,-320.73 187.62,-326.73 187.62,-326.73 187.62,-340.48 187.62,-340.48 187.62,-346.48 181.62,-352.48 175.62,-352.48"/>
<text text-anchor="start" x="34.38" y="-338.88" font-family="Arial" font-size="8.00" fill="#ffffff">com.starlingbank.mastercard.issuer.auth</text>
<text text-anchor="start" x="42.25" y="-323.23" font-family="Arial" font-size="10.00" fill="#ffffff">AuthorisationRequestHandler</text>
</g>
<!-- f1d55c6b&#45;9957&#45;4c27&#45;aeee&#45;b68f0ef3c8e6&#45;&gt;a8d660d9&#45;d8bd&#45;4087&#45;b9a7&#45;e1e6b87cc006 -->
<g id="edge2" class="edge">
<title>f1d55c6b&#45;9957&#45;4c27&#45;aeee&#45;b68f0ef3c8e6&#45;&gt;a8d660d9&#45;d8bd&#45;4087&#45;b9a7&#45;e1e6b87cc006</title>
<path fill="none" stroke="#cccccc" d="M106,-388.36C106,-388.36 106,-364.3 106,-364.3"/>
<polygon fill="#cccccc" stroke="#cccccc" points="109.5,-364.3 106,-354.3 102.5,-364.3 109.5,-364.3"/>
</g>
<!-- 152b7865&#45;35cf&#45;44ce&#45;b277&#45;c0c27ecd0ffd -->
<g id="node3" class="node">
<title>152b7865&#45;35cf&#45;44ce&#45;b277&#45;c0c27ecd0ffd</title>
<path fill="#4e4e4e" stroke="black" d="M174.88,-205.86C174.88,-205.86 37.12,-205.86 37.12,-205.86 31.12,-205.86 25.12,-199.86 25.12,-193.86 25.12,-193.86 25.12,-180.11 25.12,-180.11 25.12,-174.11 31.12,-168.11 37.12,-168.11 37.12,-168.11 174.88,-168.11 174.88,-168.11 180.88,-168.11 186.88,-174.11 186.88,-180.11 186.88,-180.11 186.88,-193.86 186.88,-193.86 186.88,-199.86 180.88,-205.86 174.88,-205.86"/>
<text text-anchor="start" x="39.25" y="-192.26" font-family="Arial" font-size="8.00" fill="#ffffff">com.starlingbank.mastercard.inbound</text>
<text text-anchor="start" x="35.12" y="-176.61" font-family="Arial" font-size="10.00" fill="#ffffff">AuthorisationMessageConsumer</text>
</g>
<!-- a8d660d9&#45;d8bd&#45;4087&#45;b9a7&#45;e1e6b87cc006&#45;&gt;152b7865&#45;35cf&#45;44ce&#45;b277&#45;c0c27ecd0ffd -->
<g id="edge4" class="edge">
<title>a8d660d9&#45;d8bd&#45;4087&#45;b9a7&#45;e1e6b87cc006&#45;&gt;152b7865&#45;35cf&#45;44ce&#45;b277&#45;c0c27ecd0ffd</title>
<path fill="none" stroke="#cccccc" d="M79.04,-314.44C79.04,-314.44 79.04,-217.67 79.04,-217.67"/>
<polygon fill="#cccccc" stroke="#cccccc" points="82.54,-217.67 79.04,-207.67 75.54,-217.67 82.54,-217.67"/>
</g>
<!-- AuthorisationRequestHandler_error -->
<g id="node6" class="node">
<title>AuthorisationRequestHandler_error</title>
<polygon fill="#ffcccc" stroke="black" points="1029.5,-278.73 212.5,-278.73 212.5,-95.23 1035.5,-95.23 1035.5,-272.73 1029.5,-278.73"/>
<polyline fill="none" stroke="black" points="1029.5,-278.73 1029.5,-272.73"/>
<polyline fill="none" stroke="black" points="1035.5,-272.73 1029.5,-272.73"/>
<text text-anchor="start" x="220.5" y="-267.13" font-family="Arial" font-size="8.00" fill="#800020">Unexpected error authorising request with Settlement Date: [620] and Network Data [MDHXANP2M] jakarta.ws.rs.ProcessingException: RESTEASY004655: Unable to invoke request: java.net.SocketException: Connection reset</text>
<text text-anchor="start" x="220.5" y="-257.38" font-family="Arial" font-size="8.00" fill="#800020">...</text>
<text text-anchor="start" x="220.5" y="-247.63" font-family="Arial" font-size="8.00" fill="#800020">	at com.starlingbank.rest.client.InvocationHandlerChain.lambda$invoke$0(InvocationHandlerChain.java:25)</text>
<text text-anchor="start" x="220.5" y="-237.88" font-family="Arial" font-size="8.00" fill="#800020">	at com.starlingbank.rest.client.ClientErrorInterceptor.invokeNext(ClientErrorInterceptor.java:31)</text>
<text text-anchor="start" x="220.5" y="-228.13" font-family="Arial" font-size="8.00" fill="#800020">	at com.starlingbank.rest.client.InvocationHandlerChain.lambda$invoke$1(InvocationHandlerChain.java:28)</text>
<text text-anchor="start" x="220.5" y="-218.38" font-family="Arial" font-size="8.00" fill="#800020">	at com.starlingbank.rest.client.InvocationHandlerChain.invoke(InvocationHandlerChain.java:30)</text>
<text text-anchor="start" x="220.5" y="-208.63" font-family="Arial" font-size="8.00" fill="#800020">...</text>
<text text-anchor="start" x="220.5" y="-198.88" font-family="Arial" font-size="8.00" fill="#800020">	at com.starlingbank.mastercard.adapter.TokenisationAdapter.tokenise(TokenisationAdapter.java:22)</text>
<text text-anchor="start" x="220.5" y="-189.13" font-family="Arial" font-size="8.00" fill="#800020">	at com.starlingbank.mastercard.issuer.auth.AuthValidationRequestMapper.createAuthValidationRequest(AuthValidationRequestMapper.java:90)</text>
<text text-anchor="start" x="220.5" y="-179.38" font-family="Arial" font-size="8.00" fill="#800020">	at com.starlingbank.mastercard.issuer.auth.AuthorisationRequestHandler.handle(AuthorisationRequestHandler.java:58)</text>
<text text-anchor="start" x="220.5" y="-169.63" font-family="Arial" font-size="8.00" fill="#800020">	at com.starlingbank.mastercard.issuer.IhopIssuerController.auth(IhopIssuerController.java:50)</text>
<text text-anchor="start" x="220.5" y="-159.88" font-family="Arial" font-size="8.00" fill="#800020">	at com.starlingbank.mastercard.inbound.AuthorisationMessageConsumer.lambda$accept$3(AuthorisationMessageConsumer.java:68)</text>
<text text-anchor="start" x="220.5" y="-150.13" font-family="Arial" font-size="8.00" fill="#800020">	at com.starlingbank.shared.command.implementation.ThreadPoolCommandBus.lambda$pushDisposableCommand$0(ThreadPoolCommandBus.java:73)</text>
<text text-anchor="start" x="220.5" y="-140.38" font-family="Arial" font-size="8.00" fill="#800020">	at com.starlingbank.shared.correlation.implementation.CorrelationScopeDefault.lambda$preserve$0(CorrelationScopeDefault.java:150)</text>
<text text-anchor="start" x="220.5" y="-130.63" font-family="Arial" font-size="8.00" fill="#800020">...</text>
<text text-anchor="start" x="220.5" y="-120.88" font-family="Arial" font-size="8.00" fill="#800020">Caused by: java.net.SocketException: Connection reset</text>
<text text-anchor="start" x="220.5" y="-111.13" font-family="Arial" font-size="8.00" fill="#800020">...</text>
<text text-anchor="start" x="220.5" y="-101.38" font-family="Arial" font-size="8.00" fill="#800020">	... 22 common frames omitted</text>
</g>
<!-- a8d660d9&#45;d8bd&#45;4087&#45;b9a7&#45;e1e6b87cc006&#45;&gt;AuthorisationRequestHandler_error -->
<g id="edge3" class="edge">
<title>a8d660d9&#45;d8bd&#45;4087&#45;b9a7&#45;e1e6b87cc006&#45;&gt;AuthorisationRequestHandler_error</title>
<path fill="none" stroke="#b00020" stroke-dasharray="5,2" d="M132.96,-314.62C132.96,-287.79 132.96,-242 132.96,-242 132.96,-242 200.61,-242 200.61,-242"/>
<polygon fill="#b00020" stroke="#b00020" points="200.61,-245.5 210.61,-242 200.61,-238.5 200.61,-245.5"/>
</g>
<!-- E -->
<g id="node5" class="node">
<title>E</title>
<ellipse fill="#4e78a5" stroke="black" cx="106" cy="-29.62" rx="25.62" ry="25.62"/>
<ellipse fill="none" stroke="black" cx="106" cy="-29.62" rx="29.62" ry="29.62"/>
<text text-anchor="middle" x="106" y="-24.19" font-family="Arial" font-size="14.00" fill="#ffffff">end</text>
</g>
<!-- 152b7865&#45;35cf&#45;44ce&#45;b277&#45;c0c27ecd0ffd&#45;&gt;E -->
<g id="edge5" class="edge">
<title>152b7865&#45;35cf&#45;44ce&#45;b277&#45;c0c27ecd0ffd&#45;&gt;E</title>
<path fill="none" stroke="#cccccc" d="M106,-167.68C106,-167.68 106,-71.09 106,-71.09"/>
<polygon fill="#cccccc" stroke="#cccccc" points="109.5,-71.09 106,-61.09 102.5,-71.09 109.5,-71.09"/>
</g>
<!-- S -->
<g id="node4" class="node">
<title>S</title>
<ellipse fill="#97c253" stroke="black" cx="106" cy="-525.84" rx="28.11" ry="28.11"/>
<text text-anchor="middle" x="106" y="-520.42" font-family="Arial" font-size="14.00" fill="#222222">start</text>
</g>
<!-- S&#45;&gt;f1d55c6b&#45;9957&#45;4c27&#45;aeee&#45;b68f0ef3c8e6 -->
<g id="edge1" class="edge">
<title>S&#45;&gt;f1d55c6b&#45;9957&#45;4c27&#45;aeee&#45;b68f0ef3c8e6</title>
<path fill="none" stroke="#cccccc" d="M106,-497.46C106,-497.46 106,-438.14 106,-438.14"/>
<polygon fill="#cccccc" stroke="#cccccc" points="109.5,-438.14 106,-428.14 102.5,-438.14 109.5,-438.14"/>
</g>
</g>
</svg>
